<svg width="484" height="458" viewBox="0 0 484 458" fill="none" xmlns="http://www.w3.org/2000/svg">
  <g filter="url(#filter0_d_1224_8)">
    <rect x="7.65305" y="5.14386" width="453" height="427" rx="27.0173" fill="black" fill-opacity="0.01" shape-rendering="crispEdges" />
    <rect x="8.19125" y="5.68207" width="451.924" height="425.924" rx="26.4791" stroke="#F05941" stroke-opacity="0.25" stroke-width="1.07642" shape-rendering="crispEdges" />
  </g>
  <path d="M64.2506 64.3665C65.4948 65.1568 67.1325 64.7721 68.0671 63.6323C69.772 61.5532 71.859 59.8101 74.223 58.5026C77.3681 56.7631 80.901 55.851 84.4924 55.8514C88.0842 55.8505 91.6176 56.7624 94.7632 58.5019C97.1278 59.8096 99.2152 61.5528 100.92 63.6323C101.855 64.7721 103.493 65.1568 104.737 64.3665C105.974 63.5808 106.353 61.9332 105.453 60.7768C103.246 57.9405 100.484 55.574 97.3272 53.8288C93.3962 51.6556 88.9807 50.5164 84.4924 50.5173C80.0045 50.5168 75.5896 51.6562 71.659 53.8294C68.5026 55.5746 65.741 57.9409 63.5346 60.7768C62.6348 61.9332 63.0138 63.5808 64.2506 64.3665ZM84.4924 98.5236C80.901 98.524 77.3681 97.6119 74.223 95.8724C71.859 94.5648 69.7719 92.8218 68.0671 90.7427C67.1325 89.6029 65.4948 89.2182 64.2506 90.0085C63.0138 90.7941 62.6348 92.4418 63.5346 93.5982C65.741 96.4341 68.5026 98.8004 71.659 100.546C75.5896 102.719 80.0045 103.858 84.4924 103.858C88.9807 103.859 93.3962 102.719 97.3272 100.546C100.484 98.8009 103.246 96.4345 105.453 93.5982C106.353 92.4418 105.974 90.7941 104.737 90.0085C103.493 89.2182 101.855 89.6029 100.92 90.7427C99.2152 92.8222 97.1278 94.5654 94.7632 95.873C91.6176 97.6126 88.0842 98.5244 84.4924 98.5236ZM84.4924 66.5194C85.1974 66.5194 85.8736 66.8004 86.3721 67.3006C86.8706 67.8007 87.1507 68.4791 87.1507 69.1864C87.1507 69.8938 86.8706 70.5721 86.3721 71.0723C85.8736 71.5725 85.1974 71.8535 84.4924 71.8535C83.7874 71.8535 83.1112 71.5725 82.6127 71.0723C82.1142 70.5721 81.8341 69.8938 81.8341 69.1864C81.8341 68.4791 82.1142 67.8007 82.6127 67.3006C83.1112 66.8004 83.7874 66.5194 84.4924 66.5194ZM84.4924 77.1875C86.6075 77.1875 88.6359 76.3445 90.1315 74.844C91.6271 73.3435 92.4673 71.3085 92.4673 69.1864C92.4673 67.0644 91.6271 65.0293 90.1315 63.5288C88.6359 62.0284 86.6075 61.1854 84.4924 61.1854C82.3773 61.1854 80.3489 62.0284 78.8533 63.5288C77.3577 65.0293 76.5175 67.0644 76.5175 69.1864C76.5175 71.3085 77.3577 73.3435 78.8533 74.844C80.3489 76.3445 82.3773 77.1875 84.4924 77.1875ZM84.4924 85.1885C83.0823 85.1885 81.73 85.7505 80.733 86.7508C80.3696 87.1155 80.0642 87.5274 79.8228 87.9723C79.1227 89.2627 77.9856 90.5226 76.5175 90.5226C75.0493 90.5226 73.8266 89.3145 74.1876 87.8914C74.6553 86.048 75.6102 84.3469 76.9736 82.9791C78.9677 80.9785 81.6723 79.8545 84.4924 79.8545C87.3125 79.8545 90.0171 80.9785 92.0112 82.9791C93.3746 84.3469 94.3295 86.048 94.7971 87.8914C95.1582 89.3145 93.9354 90.5226 92.4673 90.5226C90.9991 90.5226 89.8621 89.2627 89.162 87.9723C88.9206 87.5274 88.6152 87.1155 88.2518 86.7508C87.2547 85.7505 85.9024 85.1885 84.4924 85.1885ZM60.5677 74.5205C59.8627 74.5205 59.1865 74.8015 58.688 75.3016C58.1895 75.8018 57.9094 76.4802 57.9094 77.1875C57.9094 77.8948 58.1895 78.5732 58.688 79.0734C59.1865 79.5735 59.8627 79.8545 60.5677 79.8545C61.2727 79.8545 61.9489 79.5735 62.4474 79.0734C62.9459 78.5732 63.226 77.8948 63.226 77.1875C63.226 76.4802 62.9459 75.8018 62.4474 75.3016C61.9489 74.8015 61.2727 74.5205 60.5677 74.5205ZM52.5928 77.1875C52.5928 75.0655 53.433 73.0304 54.9286 71.5299C56.4242 70.0294 58.4526 69.1864 60.5677 69.1864C62.6828 69.1864 64.7112 70.0294 66.2068 71.5299C67.7024 73.0304 68.5426 75.0655 68.5426 77.1875C68.5426 79.3095 67.7024 81.3446 66.2068 82.8451C64.7112 84.3456 62.6828 85.1885 60.5677 85.1885C58.4526 85.1885 56.4242 84.3456 54.9286 82.8451C53.433 81.3446 52.5928 79.3095 52.5928 77.1875ZM105.759 77.1875C105.759 76.4802 106.039 75.8018 106.537 75.3016C107.036 74.8015 107.712 74.5205 108.417 74.5205C109.122 74.5205 109.798 74.8015 110.297 75.3016C110.795 75.8018 111.075 76.4802 111.075 77.1875C111.075 77.8948 110.795 78.5732 110.297 79.0734C109.798 79.5735 109.122 79.8545 108.417 79.8545C107.712 79.8545 107.036 79.5735 106.537 79.0734C106.039 78.5732 105.759 77.8948 105.759 77.1875ZM108.417 69.1864C106.302 69.1864 104.274 70.0294 102.778 71.5299C101.282 73.0304 100.442 75.0655 100.442 77.1875C100.442 79.3095 101.282 81.3446 102.778 82.8451C104.274 84.3456 106.302 85.1885 108.417 85.1885C110.532 85.1885 112.561 84.3456 114.056 82.8451C115.552 81.3446 116.392 79.3095 116.392 77.1875C116.392 75.0655 115.552 73.0304 114.056 71.5299C112.561 70.0294 110.532 69.1864 108.417 69.1864Z" fill="white" />
  <defs>
    <filter id="filter0_d_1224_8" x="-1.43051e-06" y="7.62939e-06" width="483.361" height="457.361" filterUnits="userSpaceOnUse" color-interpolation-filters="sRGB">
      <feFlood flood-opacity="0" result="BackgroundImageFix" />
      <feColorMatrix in="SourceAlpha" type="matrix" values="0 0 0 0 0 0 0 0 0 0 0 0 0 0 0 0 0 0 127 0" result="hardAlpha" />
      <feOffset dx="7.52759" dy="10.0368" />
      <feGaussianBlur stdDeviation="7.59032" />
      <feComposite in2="hardAlpha" operator="out" />
      <feColorMatrix type="matrix" values="0 0 0 0 0 0 0 0 0 0 0 0 0 0 0 0 0 0 0.6 0" />
      <feBlend mode="normal" in2="BackgroundImageFix" result="effect1_dropShadow_1224_8" />
      <feBlend mode="normal" in="BackgroundImageFix" in2="effect1_dropShadow_1224_8" result="BackgroundImageFix" />
      <feBlend mode="normal" in="SourceGraphic" in2="BackgroundImageFix" result="shape" />
    </filter>
  </defs>
</svg>